<svg width="100" height="100" viewBox="0 0 100 100" fill="none" xmlns="http://www.w3.org/2000/svg">
<path d="M100 50C100 22.3858 77.6142 0 50 0C22.3858 0 0 22.3858 0 50C0 77.6142 22.3858 100 50 100C77.6142 100 100 77.6142 100 50Z" fill="#212121"/>
<path d="M49.5455 39.0909C50.2688 39.0909 50.9625 39.3782 51.4739 39.8897C51.9854 40.4012 52.2727 41.0949 52.2727 41.8182C52.2727 42.5415 51.9854 43.2352 51.4739 43.7467C50.9625 44.2581 50.2688 44.5455 49.5455 44.5455C48.8221 44.5455 48.1284 44.2581 47.617 43.7467C47.1055 43.2352 46.8182 42.5415 46.8182 41.8182C46.8182 41.0949 47.1055 40.4012 47.617 39.8897C48.1284 39.3782 48.8221 39.0909 49.5455 39.0909ZM74.0909 47.2727C74.0909 62.4091 63.6182 76.5636 49.5455 80C35.4727 76.5636 25 62.4091 25 47.2727V30.9091L49.5455 20L74.0909 30.9091V47.2727ZM49.5455 33.6364C47.3755 33.6364 45.2944 34.4984 43.76 36.0328C42.2256 37.5672 41.3636 39.6482 41.3636 41.8182C41.3636 45.3909 43.6273 48.4182 46.8182 49.5364V66.3636H52.2727V60.9091H57.7273V55.4545H52.2727V49.5364C55.4636 48.4182 57.7273 45.3909 57.7273 41.8182C57.7273 39.6482 56.8653 37.5672 55.3309 36.0328C53.7965 34.4984 51.7154 33.6364 49.5455 33.6364Z" fill="white"/>
</svg>
